<svg xmlns="http://www.w3.org/2000/svg" width="800" height="600" viewBox="0 0 800 600" fill="none">
<defs>
  <linearGradient id="bgc" x1="0" y1="0" x2="1" y2="1">
    <stop offset="0" stop-color="#eaf7f0"/><stop offset="1" stop-color="#e9efff"/>
  </linearGradient>
  <linearGradient id="cardc" x1="0" y1="0" x2="1" y2="1">
    <stop offset="0" stop-color="#ffffff"/><stop offset="1" stop-color="#eef0f4"/>
  </linearGradient>
  <linearGradient id="pocac" x1="0" y1="0" x2="1" y2="1">
    <stop offset="0" stop-color="#ff5fae"/><stop offset="1" stop-color="#7a4cff"/>
  </linearGradient>
  <filter id="shc" x="-40%" y="-40%" width="180%" height="180%">
    <feDropShadow dx="0" dy="10" stdDeviation="14" flood-color="#2a2038" flood-opacity="0.18"/>
  </filter>
</defs>
<rect width="800" height="600" fill="url(#bgc)"/>
<g filter="url(#shc)"><rect x="210" y="122" width="290" height="390" rx="26" fill="#fff"/></g>
<rect x="238" y="150" width="74" height="104" rx="9" fill="url(#pocac)" opacity="0.55"/><rect x="328" y="150" width="74" height="104" rx="9" fill="url(#pocac)" opacity="0.55"/><rect x="418" y="150" width="74" height="104" rx="9" fill="url(#pocac)" opacity="0.55"/><rect x="238" y="272" width="74" height="104" rx="9" fill="url(#pocac)" opacity="0.55"/><rect x="328" y="272" width="74" height="104" rx="9" fill="url(#pocac)" opacity="0.55"/><rect x="420" y="274" width="70" height="100" rx="8" fill="none" stroke="#ff2e8b" stroke-opacity=".45" stroke-width="3" stroke-dasharray="8 7"/><rect x="238" y="394" width="74" height="104" rx="9" fill="url(#pocac)" opacity="0.55"/><rect x="328" y="394" width="74" height="104" rx="9" fill="url(#pocac)" opacity="0.55"/><rect x="420" y="396" width="70" height="100" rx="8" fill="none" stroke="#ff2e8b" stroke-opacity=".45" stroke-width="3" stroke-dasharray="8 7"/>
<g filter="url(#shc)">
  <circle cx="570" cy="318" r="72" fill="#fff"/>
  <circle cx="570" cy="318" r="53" fill="none" stroke="#e7e7ec" stroke-width="13"/>
  <circle cx="570" cy="318" r="53" fill="none" stroke="#ff2e8b" stroke-width="13" stroke-linecap="round"
          stroke-dasharray="333" stroke-dashoffset="73" transform="rotate(-90 570 318)"/>
  <text x="570" y="328" text-anchor="middle" font-family="Helvetica Neue, Arial, sans-serif" font-size="27" font-weight="700" fill="#2a2038">78%</text>
</g>
</svg>